<?xml version="1.0" encoding="utf-8"?>
<!-- Generator: Adobe Illustrator 16.0.0, SVG Export Plug-In . SVG Version: 6.00 Build 0)  -->
<!DOCTYPE svg PUBLIC "-//W3C//DTD SVG 1.1//EN" "http://www.w3.org/Graphics/SVG/1.1/DTD/svg11.dtd">
<svg version="1.1" id="Layer_1" xmlns="http://www.w3.org/2000/svg" xmlns:xlink="http://www.w3.org/1999/xlink" x="0px" y="0px"
	 width="53.546px" height="73.63px" viewBox="0 0 53.546 73.63" enable-background="new 0 0 53.546 73.63" xml:space="preserve">
<g>
	<path fill="#FFFFFF" d="M53.546,30.208H0.252V0.28h53.294V30.208z M29.413,17.118c-0.346,0.144-0.902,0.242-1.425,0.242
		c-1.503,0-2.395-0.945-2.395-2.447c0-1.67,1.047-2.482,2.384-2.482c0.61,0,1.09,0.133,1.425,0.278l0.355-1.336
		c-0.301-0.167-0.97-0.335-1.848-0.335c-2.271,0-4.098,1.414-4.098,3.975c0,2.138,1.336,3.764,3.93,3.764
		c0.902,0,1.613-0.179,1.914-0.322L29.413,17.118z M12.17,18.652h1.655l0.187-5.339h0.093l1.429,5.221h1.326l1.369-5.221h0.092
		l0.184,5.339h1.657l-0.411-7.482h-2.313l-1.271,4.805l-1.264-4.805h-2.318L12.17,18.652z M33.633,18.652h1.656l0.187-5.339h0.092
		l1.43,5.221h1.326l1.368-5.221h0.093l0.184,5.339h1.656l-0.411-7.482h-2.313l-1.271,4.805l-1.263-4.805h-2.318L33.633,18.652z"/>
	<g>
		<path fill="#FFFFFF" d="M4.805,45.458c-0.023-0.647-0.048-1.433-0.048-2.215H4.741c-0.176,0.688-0.4,1.455-0.608,2.087
			l-0.654,2.102H2.528l-0.576-2.078c-0.176-0.641-0.353-1.408-0.488-2.11H1.448c-0.024,0.728-0.057,1.56-0.088,2.229L1.255,47.52
			H0.128l0.344-5.389h1.623l0.528,1.799c0.176,0.624,0.336,1.295,0.456,1.928h0.032c0.144-0.624,0.328-1.336,0.512-1.936
			l0.568-1.791H5.79l0.288,5.389H4.896L4.805,45.458z"/>
		<path fill="#FFFFFF" d="M10.662,46.265c0,0.512,0.016,0.928,0.032,1.255H9.639l-0.056-0.551H9.56
			c-0.152,0.239-0.521,0.639-1.224,0.639c-0.8,0-1.375-0.495-1.375-1.703v-2.294h1.215v2.104c0,0.568,0.185,0.912,0.616,0.912
			c0.336,0,0.536-0.232,0.608-0.424c0.031-0.072,0.048-0.16,0.048-0.265v-2.327h1.215L10.662,46.265L10.662,46.265z"/>
		<path fill="#FFFFFF" d="M11.632,46.465c0.225,0.136,0.688,0.287,1.048,0.287c0.368,0,0.521-0.119,0.521-0.319
			c0-0.208-0.12-0.304-0.568-0.456c-0.814-0.271-1.127-0.711-1.119-1.175c0-0.735,0.624-1.288,1.592-1.288
			c0.456,0,0.854,0.112,1.095,0.232l-0.208,0.84c-0.176-0.096-0.521-0.226-0.848-0.226c-0.296,0-0.464,0.12-0.464,0.313
			c0,0.191,0.152,0.287,0.632,0.455c0.743,0.256,1.047,0.641,1.056,1.208c0,0.734-0.568,1.271-1.688,1.271
			c-0.512,0-0.968-0.118-1.264-0.278L11.632,46.465z"/>
		<path fill="#FFFFFF" d="M15.105,46.465c0.224,0.136,0.688,0.287,1.047,0.287c0.368,0,0.52-0.119,0.52-0.319
			c0-0.208-0.12-0.304-0.567-0.456c-0.815-0.271-1.127-0.711-1.119-1.175c0-0.735,0.624-1.288,1.591-1.288
			c0.456,0,0.855,0.112,1.096,0.232l-0.208,0.84c-0.176-0.096-0.52-0.226-0.848-0.226c-0.296,0-0.463,0.12-0.463,0.313
			c0,0.191,0.151,0.287,0.631,0.455c0.744,0.256,1.047,0.641,1.056,1.208c0,0.734-0.567,1.271-1.687,1.271
			c-0.513,0-0.968-0.118-1.265-0.278L15.105,46.465z"/>
		<path fill="#FFFFFF" d="M22.447,45.522c0,1.432-1.017,2.086-2.063,2.086c-1.143,0-2.022-0.751-2.022-2.014
			c0-1.271,0.832-2.08,2.095-2.08C21.647,43.514,22.447,44.338,22.447,45.522z M19.615,45.561c0,0.672,0.28,1.176,0.8,1.176
			c0.479,0,0.775-0.472,0.775-1.184c0-0.575-0.225-1.167-0.775-1.167C19.84,44.386,19.615,44.986,19.615,45.561z"/>
		<path fill="#FFFFFF" d="M23.2,44.858c0-0.487-0.016-0.896-0.032-1.247h1.056l0.057,0.544h0.023
			c0.16-0.256,0.553-0.632,1.207-0.632c0.801,0,1.399,0.536,1.399,1.688v2.311h-1.215v-2.166c0-0.504-0.176-0.848-0.616-0.848
			c-0.336,0-0.536,0.23-0.624,0.455c-0.032,0.08-0.04,0.191-0.04,0.305v2.254H23.2V44.858z"/>
	</g>
	<g>
		<path fill="#FFFFFF" d="M4.198,55.552c-0.216,0.104-0.729,0.231-1.375,0.231C0.96,55.783,0,54.616,0,53.081
			c0-1.839,1.313-2.854,2.942-2.854c0.632,0,1.11,0.12,1.327,0.24l-0.257,0.959c-0.239-0.104-0.583-0.199-1.022-0.199
			c-0.959,0-1.711,0.584-1.711,1.783c0,1.079,0.64,1.759,1.719,1.759c0.375,0,0.775-0.071,1.023-0.177L4.198,55.552z"/>
		<path fill="#FFFFFF" d="M8.143,54.752c0,0.368,0.016,0.729,0.063,0.942H7.111l-0.072-0.391H7.014
			c-0.256,0.312-0.655,0.479-1.119,0.479c-0.792,0-1.264-0.575-1.264-1.199c0-1.017,0.912-1.494,2.294-1.494v-0.049
			c0-0.216-0.111-0.513-0.711-0.513c-0.399,0-0.824,0.138-1.08,0.297L4.91,52.042c0.271-0.152,0.808-0.354,1.519-0.354
			c1.304,0,1.711,0.769,1.711,1.695v1.368H8.143z M6.966,53.849c-0.64,0-1.135,0.152-1.135,0.616c0,0.312,0.208,0.463,0.48,0.463
			c0.296,0,0.552-0.199,0.631-0.447c0.016-0.063,0.023-0.136,0.023-0.208V53.849z"/>
		<path fill="#FFFFFF" d="M10.407,50.731v1.057h0.872v0.896h-0.872v1.415c0,0.472,0.12,0.688,0.479,0.688
			c0.168,0,0.248-0.009,0.36-0.032l0.008,0.92c-0.151,0.056-0.448,0.104-0.783,0.104c-0.392,0-0.72-0.136-0.92-0.336
			c-0.224-0.23-0.335-0.606-0.335-1.157v-1.601h-0.52v-0.896h0.52V51.06L10.407,50.731z"/>
		<path fill="#FFFFFF" d="M13.343,50.731v1.057h0.871v0.896h-0.871v1.415c0,0.472,0.12,0.688,0.479,0.688
			c0.168,0,0.248-0.009,0.359-0.032l0.009,0.92c-0.152,0.056-0.448,0.104-0.783,0.104c-0.393,0-0.72-0.136-0.919-0.336
			c-0.225-0.23-0.336-0.606-0.336-1.157v-1.601h-0.521v-0.896h0.521V51.06L13.343,50.731z"/>
		<path fill="#FFFFFF" d="M15.817,54.129c0.031,0.504,0.536,0.743,1.103,0.743c0.416,0,0.752-0.057,1.08-0.168l0.16,0.822
			c-0.4,0.168-0.888,0.248-1.416,0.248c-1.327,0-2.087-0.768-2.087-1.989c0-0.992,0.616-2.087,1.975-2.087
			c1.264,0,1.743,0.982,1.743,1.949c0,0.209-0.023,0.394-0.04,0.48L15.817,54.129L15.817,54.129z M17.247,53.297
			c0-0.295-0.128-0.791-0.688-0.791c-0.513,0-0.721,0.472-0.753,0.791H17.247z"/>
		<path fill="#FFFFFF" d="M19.105,50.02h1.215v5.676h-1.215V50.02z"/>
		<path fill="#FFFFFF" d="M21.304,50.02h1.216v5.676h-1.216V50.02z"/>
	</g>
	<g>
		<path fill="#FFFFFF" d="M4.805,61.809c-0.023-0.647-0.048-1.432-0.048-2.215H4.741c-0.176,0.688-0.4,1.455-0.608,2.086
			l-0.654,2.104H2.528l-0.576-2.079c-0.176-0.641-0.353-1.407-0.488-2.11H1.448c-0.024,0.727-0.057,1.559-0.088,2.23l-0.104,2.047
			H0.128l0.344-5.39h1.623l0.528,1.8c0.176,0.622,0.336,1.295,0.456,1.927h0.032c0.144-0.624,0.328-1.335,0.512-1.936l0.568-1.791
			H5.79l0.288,5.39H4.896L4.805,61.809z"/>
		<path fill="#FFFFFF" d="M10.255,62.928c0,0.367,0.017,0.729,0.063,0.943H9.223l-0.071-0.393H9.127
			c-0.256,0.313-0.656,0.479-1.12,0.479c-0.792,0-1.263-0.576-1.263-1.199c0-1.016,0.912-1.495,2.294-1.495v-0.048
			c0-0.217-0.112-0.512-0.711-0.512c-0.4,0-0.824,0.136-1.08,0.295l-0.224-0.783c0.271-0.152,0.808-0.352,1.519-0.352
			c1.303,0,1.711,0.768,1.711,1.694v1.369H10.255z M9.079,62.024c-0.64,0-1.135,0.152-1.135,0.616c0,0.313,0.208,0.464,0.479,0.464
			c0.296,0,0.553-0.199,0.631-0.446c0.017-0.064,0.024-0.138,0.024-0.209V62.024z"/>
		<path fill="#FFFFFF" d="M14.158,63.768c-0.216,0.104-0.624,0.185-1.087,0.185c-1.265,0-2.071-0.775-2.071-1.999
			c0-1.145,0.784-2.079,2.239-2.079c0.32,0,0.672,0.057,0.928,0.151l-0.191,0.903c-0.145-0.063-0.36-0.12-0.681-0.12
			c-0.64,0-1.056,0.456-1.047,1.096c0,0.712,0.479,1.097,1.071,1.097c0.288,0,0.512-0.049,0.695-0.129L14.158,63.768z"/>
		<path fill="#FFFFFF" d="M16.048,61.609h0.017c0.088-0.168,0.184-0.326,0.279-0.472l0.792-1.176h1.463L17.2,61.545l1.599,2.326
			h-1.495l-0.951-1.607l-0.305,0.385v1.224h-1.215v-5.678h1.215V61.609z"/>
		<path fill="#FFFFFF" d="M19.991,62.305c0.032,0.503,0.536,0.742,1.103,0.742c0.416,0,0.752-0.055,1.08-0.168l0.16,0.824
			c-0.399,0.168-0.888,0.248-1.416,0.248c-1.327,0-2.087-0.769-2.087-1.991c0-0.991,0.616-2.087,1.975-2.087
			c1.264,0,1.743,0.983,1.743,1.951c0,0.208-0.023,0.392-0.04,0.479L19.991,62.305L19.991,62.305z M21.423,61.473
			c0-0.296-0.128-0.792-0.688-0.792c-0.513,0-0.721,0.472-0.752,0.792H21.423z"/>
		<path fill="#FFFFFF" d="M24.145,59.961l0.583,1.928c0.063,0.223,0.144,0.521,0.191,0.728h0.032
			c0.048-0.216,0.112-0.505,0.168-0.734l0.488-1.92h1.295l-0.912,2.574c-0.561,1.561-0.937,2.176-1.375,2.566
			c-0.416,0.368-0.864,0.503-1.167,0.536l-0.264-1.022c0.151-0.033,0.344-0.104,0.526-0.209c0.185-0.097,0.393-0.296,0.504-0.487
			c0.04-0.063,0.064-0.128,0.064-0.176c0-0.049-0.008-0.104-0.048-0.2l-1.439-3.582L24.145,59.961L24.145,59.961z"/>
	</g>
	<g>
		<path fill="#FFFFFF" d="M0.248,66.731c0.375-0.063,0.903-0.112,1.647-0.112c0.751,0,1.286,0.145,1.646,0.433
			c0.353,0.271,0.576,0.72,0.576,1.247s-0.168,0.983-0.496,1.279c-0.416,0.384-1.031,0.567-1.751,0.567
			c-0.16,0-0.304-0.009-0.416-0.033v1.937H0.248V66.731z M1.455,69.176c0.104,0.025,0.224,0.033,0.408,0.033
			c0.647,0,1.048-0.328,1.048-0.872c0-0.495-0.344-0.792-0.959-0.792c-0.24,0-0.408,0.017-0.496,0.041L1.455,69.176L1.455,69.176z"
			/>
		<path fill="#FFFFFF" d="M7.966,71.104c0,0.367,0.017,0.729,0.063,0.943H6.935l-0.072-0.393H6.838
			c-0.256,0.313-0.656,0.479-1.12,0.479c-0.792,0-1.263-0.576-1.263-1.199c0-1.016,0.912-1.495,2.294-1.495v-0.048
			c0-0.217-0.112-0.512-0.711-0.512c-0.4,0-0.824,0.136-1.08,0.295l-0.224-0.783c0.271-0.151,0.808-0.352,1.519-0.352
			c1.303,0,1.711,0.768,1.711,1.694v1.369H7.966z M6.791,70.2c-0.64,0-1.135,0.151-1.135,0.615c0,0.313,0.208,0.464,0.479,0.464
			c0.296,0,0.553-0.198,0.632-0.446c0.016-0.064,0.023-0.138,0.023-0.209V70.2z"/>
		<path fill="#FFFFFF" d="M8.937,69.424c0-0.575-0.009-0.951-0.032-1.287h1.04l0.048,0.72h0.032
			c0.199-0.574,0.671-0.814,1.055-0.814c0.112,0,0.168,0.008,0.256,0.022v1.146c-0.096-0.018-0.191-0.033-0.328-0.033
			c-0.447,0-0.751,0.24-0.832,0.616c-0.016,0.08-0.023,0.177-0.023,0.271v1.982H8.937V69.424z"/>
		<path fill="#FFFFFF" d="M13.504,67.083v1.055h0.871v0.896h-0.871v1.414c0,0.473,0.12,0.688,0.479,0.688
			c0.168,0,0.248-0.008,0.359-0.031l0.009,0.92c-0.152,0.056-0.448,0.104-0.783,0.104c-0.393,0-0.721-0.137-0.919-0.336
			c-0.225-0.232-0.336-0.607-0.336-1.159v-1.599h-0.521v-0.896h0.521v-0.727L13.504,67.083z"/>
		<path fill="#FFFFFF" d="M15.08,69.385c0-0.488-0.016-0.896-0.032-1.248h1.057l0.056,0.544h0.024
			c0.159-0.256,0.551-0.632,1.206-0.632c0.801,0,1.399,0.536,1.399,1.688v2.312h-1.215V69.88c0-0.503-0.176-0.847-0.616-0.847
			c-0.336,0-0.536,0.229-0.624,0.454c-0.032,0.08-0.04,0.191-0.04,0.305v2.255H15.08V69.385z"/>
		<path fill="#FFFFFF" d="M20.704,70.481c0.032,0.503,0.536,0.742,1.104,0.742c0.415,0,0.751-0.055,1.078-0.168l0.16,0.824
			c-0.399,0.168-0.888,0.248-1.416,0.248c-1.327,0-2.087-0.769-2.087-1.991c0-0.991,0.616-2.087,1.976-2.087
			c1.263,0,1.742,0.984,1.742,1.951c0,0.208-0.023,0.392-0.04,0.479L20.704,70.481L20.704,70.481z M22.135,69.649
			c0-0.296-0.128-0.792-0.688-0.792c-0.512,0-0.72,0.473-0.752,0.792H22.135z"/>
		<path fill="#FFFFFF" d="M23.992,69.424c0-0.575-0.008-0.951-0.032-1.287H25l0.048,0.72h0.032c0.2-0.574,0.671-0.814,1.055-0.814
			c0.112,0,0.168,0.008,0.256,0.022v1.146c-0.096-0.018-0.191-0.033-0.327-0.033c-0.448,0-0.751,0.24-0.832,0.616
			c-0.017,0.08-0.024,0.177-0.024,0.271v1.982h-1.215V69.424z"/>
		<path fill="#FFFFFF" d="M27.025,70.993c0.224,0.135,0.688,0.286,1.048,0.286c0.367,0,0.52-0.119,0.52-0.319
			c0-0.207-0.12-0.303-0.567-0.455c-0.815-0.271-1.127-0.712-1.119-1.176c0-0.735,0.624-1.287,1.591-1.287
			c0.455,0,0.855,0.11,1.096,0.231l-0.209,0.839c-0.176-0.096-0.52-0.224-0.848-0.224c-0.295,0-0.463,0.119-0.463,0.313
			c0,0.19,0.151,0.287,0.631,0.455c0.744,0.256,1.048,0.64,1.057,1.207c0,0.735-0.567,1.271-1.688,1.271
			c-0.512,0-0.968-0.119-1.264-0.279L27.025,70.993z"/>
		<path fill="#FFFFFF" d="M30.505,66.371h1.216v2.238h0.017c0.128-0.176,0.287-0.313,0.479-0.407
			c0.186-0.097,0.407-0.152,0.632-0.152c0.775,0,1.367,0.536,1.367,1.719v2.279H33v-2.15c0-0.512-0.176-0.862-0.633-0.862
			c-0.319,0-0.521,0.207-0.607,0.432c-0.03,0.071-0.039,0.176-0.039,0.264v2.318h-1.216V66.371z"/>
		<path fill="#FFFFFF" d="M36.448,67.05c0,0.335-0.248,0.607-0.655,0.607c-0.385,0-0.633-0.272-0.633-0.607
			c0-0.345,0.256-0.608,0.648-0.608C36.2,66.442,36.44,66.706,36.448,67.05z M35.194,72.047v-3.91h1.215v3.91H35.194z"/>
		<path fill="#FFFFFF" d="M37.384,69.449c0-0.513-0.016-0.943-0.031-1.313h1.056l0.056,0.544h0.018
			c0.287-0.407,0.734-0.632,1.303-0.632c0.854,0,1.623,0.744,1.623,1.991c0,1.423-0.903,2.095-1.775,2.095
			c-0.471,0-0.839-0.191-1.015-0.447h-0.017v1.942h-1.216L37.384,69.449L37.384,69.449z M38.599,70.368
			c0,0.097,0.009,0.176,0.024,0.256c0.08,0.328,0.36,0.576,0.712,0.576c0.527,0,0.84-0.439,0.84-1.104
			c0-0.623-0.279-1.096-0.823-1.096c-0.345,0-0.647,0.256-0.729,0.616c-0.017,0.063-0.024,0.144-0.024,0.216V70.368z"/>
	</g>
</g>
</svg>
